<svg xmlns="http://www.w3.org/2000/svg" xmlns:xlink="http://www.w3.org/1999/xlink" width="42" zoomAndPan="magnify" viewBox="0 0 31.5 31.499999" height="42" preserveAspectRatio="xMidYMid meet" version="1.2"><defs><clipPath id="ef7070b154"><path d="M 2.96875 3.101562 L 28.039062 3.101562 L 28.039062 28.171875 L 2.96875 28.171875 Z M 2.96875 3.101562 "/></clipPath><clipPath id="619380f87a"><path d="M 15.503906 3.101562 C 8.582031 3.101562 2.96875 8.710938 2.96875 15.636719 C 2.96875 22.558594 8.582031 28.171875 15.503906 28.171875 C 22.425781 28.171875 28.039062 22.558594 28.039062 15.636719 C 28.039062 8.710938 22.425781 3.101562 15.503906 3.101562 Z M 15.503906 3.101562 "/></clipPath><clipPath id="3211c10dd2"><path d="M 2.96875 3.101562 L 28.035156 3.101562 L 28.035156 28.167969 L 2.96875 28.167969 Z M 2.96875 3.101562 "/></clipPath><clipPath id="cdea48d272"><path d="M 15.503906 3.101562 C 8.582031 3.101562 2.96875 8.710938 2.96875 15.632812 C 2.96875 22.554688 8.582031 28.167969 15.503906 28.167969 C 22.425781 28.167969 28.035156 22.554688 28.035156 15.632812 C 28.035156 8.710938 22.425781 3.101562 15.503906 3.101562 Z M 15.503906 3.101562 "/></clipPath></defs><g id="3e7845f980"><g clip-rule="nonzero" clip-path="url(#ef7070b154)"><g clip-rule="nonzero" clip-path="url(#619380f87a)"><path style=" stroke:none;fill-rule:nonzero;fill:#000000;fill-opacity:1;" d="M 2.96875 3.101562 L 28.039062 3.101562 L 28.039062 28.171875 L 2.96875 28.171875 Z M 2.96875 3.101562 "/></g></g><g clip-rule="nonzero" clip-path="url(#3211c10dd2)"><g clip-rule="nonzero" clip-path="url(#cdea48d272)"><path style="fill:none;stroke-width:4;stroke-linecap:butt;stroke-linejoin:miter;stroke:#fec544;stroke-opacity:1;stroke-miterlimit:4;" d="M 16.978152 0.00105883 C 7.60249 0.00105883 -0.000685129 7.598943 -0.000685129 16.974605 C -0.000685129 26.350267 7.60249 33.953442 16.978152 33.953442 C 26.353814 33.953442 33.951698 26.350267 33.951698 16.974605 C 33.951698 7.598943 26.353814 0.00105883 16.978152 0.00105883 Z M 16.978152 0.00105883 " transform="matrix(0.738281,0,0,0.738281,2.969256,3.100781)"/></g></g><g style="fill:#fec544;fill-opacity:1;"><g transform="translate(9.206967, 22.33356)"><path style="stroke:none" d="M 7.984375 -9.625 C 7.984375 -10.09375 7.8125 -10.453125 7.46875 -10.703125 C 7.125 -10.953125 6.6875 -11.078125 6.15625 -11.078125 C 5.613281 -11.078125 5.175781 -10.96875 4.84375 -10.75 C 4.507812 -10.53125 4.34375 -10.226562 4.34375 -9.84375 C 4.34375 -9.59375 4.425781 -9.390625 4.59375 -9.234375 C 4.769531 -9.085938 4.984375 -8.984375 5.234375 -8.921875 C 5.484375 -8.859375 5.722656 -8.816406 5.953125 -8.796875 C 6.179688 -8.773438 6.351562 -8.753906 6.46875 -8.734375 C 6.96875 -8.671875 7.484375 -8.578125 8.015625 -8.453125 C 8.554688 -8.335938 9.066406 -8.160156 9.546875 -7.921875 C 10.023438 -7.691406 10.445312 -7.375 10.8125 -6.96875 C 11.175781 -6.570312 11.429688 -6.054688 11.578125 -5.421875 C 11.640625 -5.054688 11.671875 -4.726562 11.671875 -4.4375 C 11.671875 -3.695312 11.507812 -3.039062 11.1875 -2.46875 C 10.863281 -1.90625 10.4375 -1.425781 9.90625 -1.03125 C 9.375 -0.632812 8.78125 -0.332031 8.125 -0.125 C 7.476562 0.0820312 6.820312 0.1875 6.15625 0.1875 C 5.570312 0.1875 4.96875 0.09375 4.34375 -0.09375 C 3.726562 -0.28125 3.144531 -0.570312 2.59375 -0.96875 C 2.039062 -1.363281 1.59375 -1.875 1.25 -2.5 C 0.914062 -3.132812 0.75 -3.898438 0.75 -4.796875 L 4.21875 -4.796875 C 4.21875 -4.347656 4.320312 -4 4.53125 -3.75 C 4.75 -3.507812 5.007812 -3.347656 5.3125 -3.265625 C 5.625 -3.191406 5.910156 -3.15625 6.171875 -3.15625 C 6.734375 -3.15625 7.210938 -3.238281 7.609375 -3.40625 C 8.003906 -3.582031 8.203125 -3.875 8.203125 -4.28125 C 8.203125 -4.53125 8.117188 -4.722656 7.953125 -4.859375 C 7.785156 -5.003906 7.578125 -5.109375 7.328125 -5.171875 C 7.085938 -5.242188 6.847656 -5.289062 6.609375 -5.3125 C 6.378906 -5.34375 6.195312 -5.367188 6.0625 -5.390625 C 5.5 -5.441406 4.921875 -5.523438 4.328125 -5.640625 C 3.742188 -5.765625 3.203125 -5.957031 2.703125 -6.21875 C 2.203125 -6.488281 1.78125 -6.875 1.4375 -7.375 C 1.101562 -7.882812 0.90625 -8.539062 0.84375 -9.34375 L 0.84375 -9.328125 C 0.789062 -10.359375 1.003906 -11.238281 1.484375 -11.96875 C 1.960938 -12.707031 2.617188 -13.273438 3.453125 -13.671875 C 4.285156 -14.066406 5.203125 -14.265625 6.203125 -14.265625 C 6.835938 -14.265625 7.460938 -14.171875 8.078125 -13.984375 C 8.691406 -13.804688 9.253906 -13.53125 9.765625 -13.15625 C 10.273438 -12.78125 10.679688 -12.296875 10.984375 -11.703125 C 11.285156 -11.117188 11.4375 -10.425781 11.4375 -9.625 Z M 7.984375 -9.625 "/></g></g></g></svg>