<svg xmlns="http://www.w3.org/2000/svg" xmlns:xlink="http://www.w3.org/1999/xlink" width="149" zoomAndPan="magnify" viewBox="0 0 111.75 30.000001" height="40" preserveAspectRatio="xMidYMid meet" version="1.2"><defs/><g id="c44ce6e773"><g style="fill:#fec544;fill-opacity:1;"><g transform="translate(15.729247, 22.321469)"><path style="stroke:none" d="M 10.640625 -12.671875 C 10.523438 -13.171875 10.285156 -13.578125 9.921875 -13.890625 C 9.566406 -14.210938 9.148438 -14.453125 8.671875 -14.609375 C 8.191406 -14.765625 7.707031 -14.84375 7.21875 -14.84375 C 6.632812 -14.84375 6.050781 -14.738281 5.46875 -14.53125 C 4.882812 -14.332031 4.410156 -14.003906 4.046875 -13.546875 C 3.898438 -13.367188 3.796875 -13.160156 3.734375 -12.921875 C 3.671875 -12.679688 3.640625 -12.441406 3.640625 -12.203125 C 3.640625 -11.554688 3.828125 -11.066406 4.203125 -10.734375 C 4.585938 -10.410156 5.078125 -10.191406 5.671875 -10.078125 C 6.265625 -9.960938 6.878906 -9.875 7.515625 -9.8125 C 8.097656 -9.75 8.695312 -9.644531 9.3125 -9.5 C 9.9375 -9.363281 10.53125 -9.164062 11.09375 -8.90625 C 11.65625 -8.644531 12.140625 -8.296875 12.546875 -7.859375 C 12.960938 -7.421875 13.253906 -6.859375 13.421875 -6.171875 C 13.503906 -5.765625 13.546875 -5.390625 13.546875 -5.046875 C 13.546875 -4.222656 13.363281 -3.488281 13 -2.84375 C 12.632812 -2.195312 12.144531 -1.648438 11.53125 -1.203125 C 10.914062 -0.753906 10.226562 -0.414062 9.46875 -0.1875 C 8.71875 0.03125 7.960938 0.140625 7.203125 0.140625 C 6.546875 0.140625 5.875 0.046875 5.1875 -0.140625 C 4.5 -0.335938 3.859375 -0.628906 3.265625 -1.015625 C 2.671875 -1.398438 2.171875 -1.878906 1.765625 -2.453125 C 1.367188 -3.023438 1.128906 -3.695312 1.046875 -4.46875 L 1.03125 -4.9375 L 3.515625 -4.984375 L 3.53125 -4.609375 L 3.53125 -4.703125 C 3.601562 -4.179688 3.828125 -3.738281 4.203125 -3.375 C 4.585938 -3.007812 5.054688 -2.738281 5.609375 -2.5625 C 6.160156 -2.382812 6.695312 -2.296875 7.21875 -2.296875 C 7.84375 -2.296875 8.445312 -2.40625 9.03125 -2.625 C 9.613281 -2.84375 10.097656 -3.160156 10.484375 -3.578125 C 10.867188 -3.992188 11.0625 -4.492188 11.0625 -5.078125 C 11.0625 -5.253906 11.035156 -5.445312 10.984375 -5.65625 C 10.890625 -6.101562 10.648438 -6.4375 10.265625 -6.65625 C 9.878906 -6.875 9.414062 -7.03125 8.875 -7.125 C 8.34375 -7.21875 7.789062 -7.289062 7.21875 -7.34375 C 6.550781 -7.40625 5.875 -7.503906 5.1875 -7.640625 C 4.507812 -7.785156 3.878906 -8.007812 3.296875 -8.3125 C 2.710938 -8.625 2.226562 -9.050781 1.84375 -9.59375 C 1.457031 -10.144531 1.234375 -10.867188 1.171875 -11.765625 L 1.171875 -11.734375 C 1.171875 -11.816406 1.164062 -11.890625 1.15625 -11.953125 C 1.144531 -12.023438 1.140625 -12.09375 1.140625 -12.15625 C 1.140625 -13.207031 1.457031 -14.148438 2.09375 -14.984375 C 2.664062 -15.734375 3.421875 -16.296875 4.359375 -16.671875 C 5.304688 -17.054688 6.273438 -17.25 7.265625 -17.25 C 8.148438 -17.25 9.007812 -17.085938 9.84375 -16.765625 C 10.6875 -16.453125 11.398438 -15.96875 11.984375 -15.3125 C 12.566406 -14.65625 12.929688 -13.804688 13.078125 -12.765625 Z M 10.640625 -12.671875 "/></g></g><g style="fill:#ffffff;fill-opacity:1;"><g transform="translate(30.254912, 22.321469)"><path style="stroke:none" d="M 4.125 -11.5625 C 4.625 -12.28125 5.21875 -12.765625 5.90625 -13.015625 C 6.59375 -13.273438 7.347656 -13.40625 8.171875 -13.40625 C 9.523438 -13.40625 10.625 -13.144531 11.46875 -12.625 C 12.3125 -12.101562 12.929688 -11.367188 13.328125 -10.421875 C 13.734375 -9.472656 13.9375 -8.367188 13.9375 -7.109375 L 13.9375 0 L 11.546875 0 L 11.546875 -7.078125 C 11.546875 -7.910156 11.453125 -8.640625 11.265625 -9.265625 C 11.078125 -9.898438 10.722656 -10.394531 10.203125 -10.75 C 9.691406 -11.101562 8.957031 -11.28125 8 -11.28125 C 7.175781 -11.28125 6.472656 -11.09375 5.890625 -10.71875 C 5.316406 -10.351562 4.878906 -9.863281 4.578125 -9.25 C 4.273438 -8.632812 4.125 -7.941406 4.125 -7.171875 L 4.125 0 L 1.75 0 L 1.75 -17.078125 L 4.125 -17.078125 Z M 4.125 -11.5625 "/></g></g><g style="fill:#ffffff;fill-opacity:1;"><g transform="translate(46.066176, 22.321469)"><path style="stroke:none" d="M 15.546875 0 L 13.15625 0 L 13.15625 -1.78125 C 12.84375 -1.3125 12.414062 -0.925781 11.875 -0.625 C 11.34375 -0.332031 10.773438 -0.125 10.171875 0 C 9.578125 0.125 9 0.195312 8.4375 0.21875 C 6.914062 0.21875 5.625 -0.0976562 4.5625 -0.734375 C 3.507812 -1.378906 2.707031 -2.226562 2.15625 -3.28125 C 1.613281 -4.332031 1.34375 -5.457031 1.34375 -6.65625 C 1.34375 -7.84375 1.617188 -8.945312 2.171875 -9.96875 C 2.722656 -11 3.523438 -11.832031 4.578125 -12.46875 C 5.640625 -13.101562 6.910156 -13.421875 8.390625 -13.421875 C 8.941406 -13.421875 9.507812 -13.367188 10.09375 -13.265625 C 10.6875 -13.160156 11.25 -12.960938 11.78125 -12.671875 C 12.320312 -12.390625 12.785156 -11.984375 13.171875 -11.453125 L 13.15625 -13.203125 L 15.546875 -13.203125 Z M 13.15625 -6.609375 C 13.15625 -7.671875 12.914062 -8.546875 12.4375 -9.234375 C 11.957031 -9.929688 11.347656 -10.453125 10.609375 -10.796875 C 9.878906 -11.148438 9.140625 -11.328125 8.390625 -11.328125 C 7.429688 -11.328125 6.601562 -11.117188 5.90625 -10.703125 C 5.207031 -10.285156 4.671875 -9.726562 4.296875 -9.03125 C 3.921875 -8.332031 3.734375 -7.539062 3.734375 -6.65625 C 3.734375 -5.832031 3.921875 -5.054688 4.296875 -4.328125 C 4.671875 -3.609375 5.203125 -3.023438 5.890625 -2.578125 C 6.585938 -2.128906 7.421875 -1.90625 8.390625 -1.90625 C 9.128906 -1.90625 9.863281 -2.070312 10.59375 -2.40625 C 11.320312 -2.75 11.929688 -3.269531 12.421875 -3.96875 C 12.910156 -4.675781 13.15625 -5.554688 13.15625 -6.609375 Z M 13.15625 -6.609375 "/></g></g><g style="fill:#ffffff;fill-opacity:1;"><g transform="translate(63.024241, 22.321469)"><path style="stroke:none" d="M 15.5 -6.59375 C 15.5 -5.445312 15.296875 -4.445312 14.890625 -3.59375 C 14.492188 -2.738281 13.953125 -2.023438 13.265625 -1.453125 C 12.585938 -0.890625 11.820312 -0.460938 10.96875 -0.171875 C 10.113281 0.109375 9.238281 0.25 8.34375 0.25 C 7.46875 0.25 6.601562 0.109375 5.75 -0.171875 C 4.90625 -0.460938 4.144531 -0.890625 3.46875 -1.453125 C 2.800781 -2.023438 2.265625 -2.738281 1.859375 -3.59375 C 1.460938 -4.445312 1.265625 -5.445312 1.265625 -6.59375 C 1.265625 -7.726562 1.460938 -8.722656 1.859375 -9.578125 C 2.265625 -10.429688 2.804688 -11.140625 3.484375 -11.703125 C 4.171875 -12.273438 4.941406 -12.703125 5.796875 -12.984375 C 6.648438 -13.273438 7.523438 -13.421875 8.421875 -13.421875 C 9.316406 -13.421875 10.179688 -13.273438 11.015625 -12.984375 C 11.859375 -12.703125 12.613281 -12.273438 13.28125 -11.703125 C 13.957031 -11.140625 14.492188 -10.429688 14.890625 -9.578125 C 15.296875 -8.722656 15.5 -7.726562 15.5 -6.59375 Z M 3.65625 -6.59375 C 3.65625 -5.550781 3.882812 -4.679688 4.34375 -3.984375 C 4.8125 -3.296875 5.40625 -2.773438 6.125 -2.421875 C 6.851562 -2.078125 7.609375 -1.90625 8.390625 -1.90625 C 9.191406 -1.90625 9.945312 -2.078125 10.65625 -2.421875 C 11.375 -2.773438 11.960938 -3.300781 12.421875 -4 C 12.890625 -4.695312 13.125 -5.5625 13.125 -6.59375 C 13.125 -7.632812 12.894531 -8.503906 12.4375 -9.203125 C 11.988281 -9.898438 11.398438 -10.421875 10.671875 -10.765625 C 9.953125 -11.117188 9.203125 -11.296875 8.421875 -11.296875 C 7.617188 -11.296875 6.851562 -11.117188 6.125 -10.765625 C 5.40625 -10.421875 4.8125 -9.898438 4.34375 -9.203125 C 3.882812 -8.515625 3.65625 -7.644531 3.65625 -6.59375 Z M 3.65625 -6.59375 "/></g></g><g style="fill:#ffffff;fill-opacity:1;"><g transform="translate(79.957911, 22.321469)"><path style="stroke:none" d="M 4.21875 -11.5625 C 4.707031 -12.28125 5.296875 -12.765625 5.984375 -13.015625 C 6.679688 -13.273438 7.445312 -13.40625 8.28125 -13.40625 C 9.625 -13.40625 10.710938 -13.144531 11.546875 -12.625 C 12.390625 -12.101562 13.007812 -11.367188 13.40625 -10.421875 C 13.8125 -9.472656 14.015625 -8.367188 14.015625 -7.109375 L 14.015625 0 L 11.640625 0 L 11.640625 -7.078125 C 11.640625 -7.910156 11.546875 -8.640625 11.359375 -9.265625 C 11.171875 -9.898438 10.820312 -10.394531 10.3125 -10.75 C 9.800781 -11.101562 9.066406 -11.28125 8.109375 -11.28125 C 7.273438 -11.28125 6.566406 -11.09375 5.984375 -10.71875 C 5.410156 -10.351562 4.972656 -9.863281 4.671875 -9.25 C 4.367188 -8.632812 4.21875 -7.941406 4.21875 -7.171875 L 4.21875 0 L 1.828125 0 L 1.828125 -13.203125 L 4.21875 -13.203125 Z M 4.21875 -11.5625 "/></g></g></g></svg>